Normalized EMG Linear Envelopes
nRows=285
nColumns=4

endheader
time	 med_gas_r	  soleus_r	 tib_ant_r	
2.39501	  0.046256	  0.070595	  0.041621	
2.42827	  0.046207	  0.071835	  0.041901	
2.46154	  0.046160	  0.073024	  0.042089	
2.4948	  0.046040	  0.074075	  0.042138	
2.52806	  0.045941	  0.074988	  0.041967	
2.56133	  0.046075	  0.075817	  0.041496	
2.59459	  0.046636	  0.076603	  0.040696	
2.62786	  0.047636	  0.077315	  0.039624	
2.66112	  0.048836	  0.077841	  0.038427	
2.69438	  0.049860	  0.078042	  0.037293	
2.72765	  0.050435	  0.077820	  0.036380	
2.76091	  0.050586	  0.077154	  0.035762	
2.79418	  0.050628	  0.076110	  0.035457	
2.82744	  0.050969	  0.074824	  0.035493	
2.8607	  0.051859	  0.073465	  0.035941	
2.89397	  0.053252	  0.072182	  0.036854	
2.92723	  0.054824	  0.071050	  0.038176	
2.9605	  0.056111	  0.070074	  0.039714	
2.99376	  0.056726	  0.069245	  0.041230	
3.02702	  0.056531	  0.068612	  0.042540	
3.06029	  0.055683	  0.068289	  0.043543	
3.09355	  0.054548	  0.068353	  0.044174	
3.12682	  0.053515	  0.068716	  0.044393	
3.16008	  0.052831	  0.069089	  0.044228	
3.19334	  0.052525	  0.069112	  0.043797	
3.22661	  0.052458	  0.068568	  0.043250	
3.25987	  0.052459	  0.067512	  0.042686	
3.29314	  0.052467	  0.066222	  0.042145	
3.3264	  0.052563	  0.065008	  0.041687	
3.35966	  0.052872	  0.064051	  0.041442	
3.39293	  0.053411	  0.063383	  0.041578	
3.42619	  0.054011	  0.062980	  0.042190	
3.45946	  0.054385	  0.062855	  0.043204	
3.49272	  0.054296	  0.063080	  0.044386	
3.52598	  0.053707	  0.063723	  0.045446	
3.55925	  0.052803	  0.064811	  0.046191	
3.59251	  0.051884	  0.066311	  0.046606	
3.62578	  0.051212	  0.068149	  0.046819	
3.65904	  0.050904	  0.070198	  0.046978	
3.6923	  0.050919	  0.072238	  0.047148	
3.72557	  0.051118	  0.073931	  0.047300	
3.75883	  0.051356	  0.074896	  0.047349	
3.7921	  0.051549	  0.074878	  0.047217	
3.82536	  0.051707	  0.073924	  0.046848	
3.85862	  0.051915	  0.072426	  0.046241	
3.89189	  0.052272	  0.070968	  0.045482	
3.92515	  0.052834	  0.070091	  0.044761	
3.95842	  0.053569	  0.070109	  0.044306	
3.99168	  0.054375	  0.071045	  0.044241	
4.02494	  0.055115	  0.072655	  0.044470	
4.05821	  0.055679	  0.074504	  0.044690	
4.09147	  0.056024	  0.076109	  0.044546	
4.12474	  0.056185	  0.077116	  0.043833	
4.158	  0.056251	  0.077438	  0.042598	
4.19126	  0.056337	  0.077246	  0.041077	
4.22453	  0.056557	  0.076812	  0.039541	
4.25779	  0.056972	  0.076308	  0.038150	
4.29106	  0.057546	  0.075725	  0.036931	
4.32432	  0.058134	  0.074946	  0.035865	
4.35758	  0.058538	  0.073918	  0.035014	
4.39085	  0.058610	  0.072765	  0.034619	
4.42411	  0.058347	  0.071782	  0.035153	
4.45738	  0.057938	  0.071331	  0.037352	
4.49064	  0.057757	  0.071746	  0.042280	
4.5239	  0.058275	  0.073311	  0.051388	
4.55717	  0.059888	  0.076280	  0.066376	
4.59043	  0.062734	  0.080845	  0.088662	
4.6237	  0.066618	  0.087015	  0.118628	
4.65696	  0.071114	  0.094511	  0.155283	
4.69022	  0.075797	  0.102811	  0.196998	
4.72349	  0.080386	  0.111382	  0.243014	
4.75675	  0.084706	  0.119895	  0.294293	
4.79002	  0.088513	  0.128205	  0.352398	
4.82328	  0.091420	  0.136115	  0.416859	
4.85654	  0.093025	  0.143190	  0.483315	
4.88981	  0.093143	  0.148884	  0.544540	
4.92307	  0.091964	  0.152868	  0.593925	
4.95634	  0.089994	  0.155205	  0.628752	
4.9896	  0.087850	  0.156224	  0.650874	
5.02286	  0.086026	  0.156268	  0.664710	
5.05613	  0.084743	  0.155592	  0.674374	
5.08939	  0.083980	  0.154429	  0.681859	
5.12266	  0.083677	  0.153060	  0.686996	
5.15592	  0.083965	  0.151771	  0.688637	
5.18918	  0.085240	  0.150751	  0.685813	
5.22245	  0.087998	  0.150054	  0.678008	
5.25571	  0.092554	  0.149640	  0.664696	
5.28898	  0.098810	  0.149422	  0.645133	
5.32224	  0.106119	  0.149230	  0.618977	
5.3555	  0.113293	  0.148792	  0.587246	
5.38877	  0.118897	  0.147833	  0.552439	
5.42203	  0.121883	  0.146251	  0.517414	
5.4553	  0.122252	  0.144186	  0.483862	
5.48856	  0.121235	  0.141859	  0.451757	
5.52182	  0.120794	  0.139346	  0.420307	
5.55509	  0.122746	  0.136550	  0.389592	
5.58835	  0.128085	  0.133403	  0.361437	
5.62162	  0.136702	  0.130091	  0.338819	
5.65488	  0.147432	  0.127078	  0.324386	
5.68814	  0.158328	  0.124913	  0.319245	
5.72141	  0.167244	  0.124026	  0.322725	
5.75467	  0.172755	  0.124632	  0.333005	
5.78794	  0.175001	  0.126724	  0.348051	
5.8212	  0.175755	  0.130056	  0.366186	
5.85446	  0.177372	  0.134062	  0.386003	
5.88773	  0.181215	  0.137850	  0.405881	
5.92099	  0.186775	  0.140394	  0.423752	
5.95426	  0.192280	  0.140904	  0.437473	
5.98752	  0.196369	  0.139177	  0.445494	
6.02078	  0.199342	  0.135704	  0.447214	
6.05405	  0.202759	  0.131489	  0.442879	
6.08731	  0.207697	  0.127647	  0.433407	
6.12058	  0.213388	  0.124962	  0.420459	
6.15384	  0.217725	  0.123561	  0.406499	
6.1871	  0.219324	  0.122912	  0.394267	
6.22037	  0.219163	  0.122173	  0.385641	
6.25363	  0.220132	  0.120701	  0.380671	
6.2869	  0.224845	  0.118418	  0.377750	
6.32016	  0.233648	  0.115774	  0.375024	
6.35342	  0.244465	  0.113416	  0.371954	
6.38669	  0.254413	  0.111843	  0.369717	
6.41995	  0.261667	  0.111286	  0.370069	
6.45322	  0.266152	  0.111775	  0.373664	
6.48648	  0.268886	  0.113248	  0.379310	
6.51974	  0.270993	  0.115589	  0.384867	
6.55301	  0.273314	  0.118616	  0.388969	
6.58627	  0.276552	  0.122106	  0.392037	
6.61954	  0.281300	  0.125874	  0.395736	
6.6528	  0.287754	  0.129855	  0.401453	
6.68606	  0.295575	  0.134107	  0.409161	
6.71933	  0.304188	  0.138722	  0.417504	
6.75259	  0.313143	  0.143691	  0.424862	
6.78586	  0.322101	  0.148827	  0.430432	
6.81912	  0.330665	  0.153852	  0.434574	
6.85238	  0.338452	  0.158617	  0.438336	
6.88565	  0.345213	  0.163298	  0.442683	
6.91891	  0.350585	  0.168365	  0.447996	
6.95218	  0.353710	  0.174284	  0.454046	
6.98544	  0.353475	  0.181093	  0.460375	
7.0187	  0.349435	  0.188195	  0.466772	
7.05197	  0.342410	  0.194541	  0.473495	
7.08523	  0.334007	  0.199117	  0.481013	
7.1185	  0.325582	  0.201385	  0.489398	
7.15176	  0.317715	  0.201451	  0.497933	
7.18502	  0.310426	  0.199948	  0.505303	
7.21829	  0.303531	  0.197765	  0.510238	
7.25155	  0.296785	  0.195675	  0.512073	
7.28482	  0.290036	  0.193960	  0.510874	
7.31808	  0.283484	  0.192252	  0.507149	
7.35134	  0.277656	  0.189820	  0.501488	
7.38461	  0.272965	  0.186187	  0.494456	
7.41787	  0.269434	  0.181634	  0.486793	
7.45114	  0.267059	  0.177176	  0.479590	
7.4844	  0.266344	  0.174024	  0.474064	
7.51766	  0.268089	  0.172913	  0.470970	
7.55093	  0.272417	  0.173714	  0.470179	
7.58419	  0.278153	  0.175496	  0.470893	
7.61746	  0.283510	  0.176958	  0.472252	
7.65072	  0.287502	  0.176987	  0.473647	
7.68398	  0.290539	  0.175081	  0.474397	
7.71725	  0.293525	  0.171430	  0.473301	
7.75051	  0.296532	  0.166625	  0.468829	
7.78378	  0.298585	  0.161268	  0.460152	
7.81704	  0.298839	  0.155765	  0.448257	
7.8503	  0.297864	  0.150432	  0.436053	
7.88357	  0.297768	  0.145721	  0.427087	
7.91683	  0.301035	  0.142295	  0.423743	
7.9501	  0.308997	  0.140814	  0.426361	
7.98336	  0.320949	  0.141595	  0.433901	
8.01662	  0.334391	  0.144433	  0.445310	
8.04989	  0.346241	  0.148723	  0.460212	
8.08315	  0.354320	  0.153763	  0.478419	
8.11642	  0.358108	  0.158968	  0.499056	
8.14968	  0.358330	  0.163903	  0.520291	
8.18294	  0.355982	  0.168290	  0.539855	
8.21621	  0.351812	  0.172098	  0.555701	
8.24947	  0.346597	  0.175640	  0.566381	
8.28274	  0.341507	  0.179445	  0.571347	
8.316	  0.337864	  0.183878	  0.571475	
8.34926	  0.336471	  0.188779	  0.569384	
8.38253	  0.337183	  0.193472	  0.568678	
8.41579	  0.339002	  0.197175	  0.572002	
8.44906	  0.340383	  0.199477	  0.579175	
8.48232	  0.339545	  0.200527	  0.587135	
8.51558	  0.334964	  0.200839	  0.591994	
8.54885	  0.326179	  0.200956	  0.591639	
8.58211	  0.314408	  0.201259	  0.586808	
8.61538	  0.302282	  0.201992	  0.580087	
8.64864	  0.292602	  0.203340	  0.574124	
8.6819	  0.286953	  0.205412	  0.570625	
8.71517	  0.285105	  0.208127	  0.570573	
8.74843	  0.285424	  0.211168	  0.574954	
8.7817	  0.285745	  0.214060	  0.585054	
8.81496	  0.284112	  0.216289	  0.601860	
8.84822	  0.279324	  0.217407	  0.624816	
8.88149	  0.271466	  0.217104	  0.650874	
8.91475	  0.262230	  0.215264	  0.674927	
8.94802	  0.254493	  0.211990	  0.691787	
8.98128	  0.251079	  0.207579	  0.698467	
9.01454	  0.253409	  0.202490	  0.695140	
9.04781	  0.260988	  0.197299	  0.684320	
9.08107	  0.271877	  0.192596	  0.669246	
9.11434	  0.283632	  0.188823	  0.652700	
9.1476	  0.294116	  0.186167	  0.636601	
9.18086	  0.302052	  0.184588	  0.622107	
9.21413	  0.307244	  0.183918	  0.609984	
9.24739	  0.310346	  0.183924	  0.601079	
9.28066	  0.312163	  0.184340	  0.596473	
9.31392	  0.312942	  0.184889	  0.596996	
9.34718	  0.312289	  0.185348	  0.602487	
9.38045	  0.309875	  0.185621	  0.611651	
9.41371	  0.306342	  0.185772	  0.622802	
9.44698	  0.303461	  0.185966	  0.634677	
9.48024	  0.303223	  0.186326	  0.646376	
9.5135	  0.306536	  0.186824	  0.656480	
9.54677	  0.312616	  0.187304	  0.662489	
9.58003	  0.319579	  0.187602	  0.661592	
9.6133	  0.325670	  0.187640	  0.652521	
9.64656	  0.330124	  0.187450	  0.637120	
9.67982	  0.333070	  0.187179	  0.620311	
9.71309	  0.334775	  0.187052	  0.608260	
9.74635	  0.335041	  0.187208	  0.605740	
9.77962	  0.333323	  0.187479	  0.614102	
9.81288	  0.329442	  0.187329	  0.630992	
9.84614	  0.324214	  0.186081	  0.651987	
9.87941	  0.319369	  0.183344	  0.673127	
9.91267	  0.316808	  0.179355	  0.692631	
9.94594	  0.317723	  0.174997	  0.710723	
9.9792	  0.322057	  0.171446	  0.728089	
10.0125	  0.328471	  0.169602	  0.744547	
10.0457	  0.334810	  0.169646	  0.758927	
10.079	  0.338967	  0.170985	  0.769730	
10.1123	  0.339799	  0.172614	  0.775436	
10.1455	  0.337622	  0.173643	  0.774098	
10.1788	  0.333981	  0.173673	  0.762983	
10.212	  0.330763	  0.172844	  0.739139	
10.2453	  0.329097	  0.171596	  0.700822	
10.2786	  0.328666	  0.170315	  0.648806	
10.3118	  0.327930	  0.169046	  0.586586	
10.3451	  0.325171	  0.167426	  0.519459	
10.3784	  0.319577	  0.164900	  0.453159	
10.4116	  0.311540	  0.161116	  0.392843	
10.4449	  0.302084	  0.156230	  0.342639	
10.4782	  0.292105	  0.150927	  0.305601	
10.5114	  0.282112	  0.146130	  0.283712	
10.5447	  0.272510	  0.142608	  0.277700	
10.578	  0.263939	  0.140711	  0.286602	
10.6112	  0.257321	  0.140293	  0.307341	
10.6445	  0.253604	  0.140829	  0.334729	
10.6777	  0.253396	  0.141598	  0.362140	
10.711	  0.256648	  0.141885	  0.382703	
10.7443	  0.262600	  0.141112	  0.390683	
10.7775	  0.270141	  0.138897	  0.382790	
10.8108	  0.278445	  0.135080	  0.359168	
10.8441	  0.287371	  0.129769	  0.323540	
10.8773	  0.297246	  0.123387	  0.282068	
10.9106	  0.308108	  0.116628	  0.241169	
10.9439	  0.319059	  0.110266	  0.205423	
10.9771	  0.328341	  0.104921	  0.176723	
11.0104	  0.334252	  0.100933	  0.154888	
11.0436	  0.336279	  0.098395	  0.138913	
11.0769	  0.335505	  0.097217	  0.127810	
11.1102	  0.333878	  0.097121	  0.120642	
11.1434	  0.332947	  0.097587	  0.116187	
11.1767	  0.333091	  0.097926	  0.112892	
11.21	  0.333814	  0.097529	  0.109343	
11.2432	  0.334602	  0.096160	  0.104808	
11.2765	  0.335464	  0.094041	  0.099340	
11.3098	  0.336706	  0.091658	  0.093395	
11.343	  0.338316	  0.089436	  0.087396	
11.3763	  0.339651	  0.087511	  0.081575	
11.4096	  0.339701	  0.085719	  0.076061	
11.4428	  0.337689	  0.083776	  0.070968	
11.4761	  0.333497	  0.081512	  0.066397	
11.5093	  0.327652	  0.079017	  0.062378	
11.5426	  0.320960	  0.076607	  0.058866	
11.5759	  0.314104	  0.074658	  0.055776	
11.6091	  0.307428	  0.073443	  0.053046	
11.6424	  0.300944	  0.073079	  0.050643	
11.6757	  0.294433	  0.073566	  0.048533	
11.7089	  0.287603	  0.074826	  0.046655	
11.7422	  0.280290	  0.076692	  0.044954	
11.7755	  0.272596	  0.078912	  0.043414	
11.8087	  0.264853	  0.081223	  0.042055	
11.842	  0.257425	  0.083438	  0.040879	
